<svg xmlns="http://www.w3.org/2000/svg" version="1.1" viewBox="-5.0 -10.0 110.0 135.0">
 <path d="m79.781 82.953c-0.5625-1.0469-1.6719-1.7031-2.9219-1.7031h-67.328c-1.2344 0-2.3594 0.65625-2.9219 1.7031-0.53125 1-0.46875 2.1562 0.15625 3.1094l1.2969 1.9375c2.4062 3.5938 6.5938 5.75 11.156 5.75h47.922c4.5781 0 8.75-2.1406 11.156-5.75l1.2969-1.9375c0.64062-0.95312 0.6875-2.1094 0.15625-3.1094z"/>
 <path d="m72.562 84.375c-0.85938 0-1.5625-0.70312-1.5625-1.5625 0-20.328-12.625-29.562-23.422-31.281-2.9062-0.46875-5.8594-0.46875-8.7656 0-10.812 1.7344-23.422 10.953-23.422 31.281 0 0.85938-0.70312 1.5625-1.5625 1.5625s-1.5625-0.70312-1.5625-1.5625c0-22.297 14.031-32.453 26.062-34.375 3.2344-0.53125 6.5156-0.53125 9.7656 0 12.016 1.9219 26.047 12.078 26.047 34.375 0 0.85938-0.70312 1.5625-1.5625 1.5625z"/>
 <path d="m64.266 79.609c-0.78125 0-1.4688-0.59375-1.5469-1.3906-1.3125-12.109-9.3438-17.641-16.406-18.766-0.84375-0.14062-1.4375-0.9375-1.2969-1.7969s0.9375-1.4375 1.7969-1.2969c8.2188 1.3125 17.516 7.6562 19.016 21.516 0.09375 0.85938-0.53125 1.625-1.3906 1.7188h-0.17188z"/>
 <path d="m47.828 51.547c-0.85938 0-1.5625-0.70312-1.5625-1.5625v-5.4688c0-1.6562-1.375-3-3.0625-3s-3.0625 1.3438-3.0625 3v5.4688c0 0.85938-0.70312 1.5625-1.5625 1.5625s-1.5625-0.70312-1.5625-1.5625v-5.4688c0-3.375 2.7812-6.125 6.1875-6.125s6.1875 2.75 6.1875 6.125v5.4688c0 0.85938-0.70312 1.5625-1.5625 1.5625z"/>
 <path d="m15.25 73.25h-0.03125c-0.85938 0-1.5469-0.73438-1.5312-1.5938l0.67188-38.266c0.03125-2.125 1.8125-3.8594 3.9688-3.8594h7.7188c2.1406 0 3.9219 1.7344 3.9688 3.8594l0.34375 20.016c0 0.85938-0.67188 1.5781-1.5312 1.5938s-1.5781-0.67188-1.5938-1.5312l-0.34375-20.016c0-0.4375-0.375-0.78125-0.84375-0.78125h-7.7188c-0.45312 0-0.82812 0.35938-0.84375 0.78125l-0.67188 38.266c0 0.85938-0.71875 1.5312-1.5625 1.5312z"/>
 <path d="m22.031 32.656c-0.85938 0-1.5625-0.70312-1.5625-1.5625v-5.7656c0-0.85938 0.70312-1.5625 1.5625-1.5625s1.5625 0.70312 1.5625 1.5625v5.7656c0 0.85938-0.70312 1.5625-1.5625 1.5625z"/>
 <path d="m22.031 26.891c-0.42188 0-0.82812-0.17188-1.1094-0.46875-6.0781-6.1875-6.0938-12.984-0.046875-19.656 0.59375-0.65625 1.7188-0.65625 2.3125 0 6.0469 6.6719 6.0312 13.469-0.046875 19.656-0.29688 0.29688-0.70312 0.46875-1.1094 0.46875zm0-16.641c-3.4375 4.4844-3.4375 8.5938 0 12.75 3.4375-4.1719 3.4375-8.2812 0-12.75z"/>
 <path d="m78.578 52.047c-1.2656 0-2.6719-0.25-4.0938-0.71875-0.35938-0.10938-0.76562-0.25-1.1562-0.40625-3.1875-1.2656-5.5625-4.0469-6.3594-7.4531-2.5312-11.016-3.4688-19.562-3.5781-32.688 0-1.2031 0.45312-2.3281 1.2969-3.1875 0.85938-0.85938 2-1.3438 3.2344-1.3438h21.297c1.2188 0 2.375 0.48438 3.2344 1.3438 0.84375 0.85938 1.3125 1.9844 1.2969 3.1875-0.10938 13.125-1.0469 21.672-3.5781 32.672-0.79688 3.4062-3.1719 6.1875-6.375 7.4688-0.375 0.15625-0.76562 0.29688-1.1562 0.40625-1.3906 0.46875-2.7969 0.71875-4.0625 0.71875zm-10.656-42.672c-0.39062 0-0.75 0.15625-1.0156 0.42188-0.25 0.26562-0.39062 0.59375-0.39062 0.95312 0.10938 12.875 1.0156 21.25 3.5 32.016 0.5625 2.4062 2.2344 4.375 4.4844 5.25 0.3125 0.125 0.60938 0.23438 0.9375 0.32812 1.1406 0.375 2.2188 0.57812 3.1562 0.57812s2-0.1875 3.1094-0.5625c0.34375-0.10938 0.64062-0.21875 0.95312-0.34375 2.25-0.89062 3.9219-2.8594 4.4844-5.2656 2.4688-10.75 3.3906-19.125 3.5-32 0-0.35938-0.14062-0.70312-0.39062-0.95312-0.26562-0.26562-0.625-0.42188-1.0156-0.42188z"/>
 <path d="m87.625 16.047c-0.29688-0.3125-0.70312-0.48438-1.125-0.48438h-15.844c-0.42188 0-0.82812 0.17188-1.125 0.48438s-0.45312 0.71875-0.4375 1.1406c0.34375 9.2188 1.2656 16.25 3.3125 25.078 0.375 1.6406 1.5 2.9844 3.0156 3.5938 1.1406 0.45312 2.2969 0.71875 3.1562 0.71875s2.0312-0.26562 3.1719-0.71875c1.5156-0.625 2.6406-1.9688 3.0156-3.5938 2.0312-8.8281 2.9688-15.859 3.2969-25.078 0-0.42188-0.14062-0.84375-0.4375-1.1406z"/>
 <path d="m75.625 84.375c-0.84375 0-1.5469-0.6875-1.5625-1.5312l-0.65625-32.969c-0.015625-0.85938 0.67188-1.5781 1.5312-1.5938 0.79688 0 1.5781 0.67188 1.5938 1.5312l0.65625 32.969c0.015625 0.85938-0.67188 1.5781-1.5312 1.5938z"/>
 <path d="m81.516 84.375h-0.03125c-0.85938-0.015625-1.5469-0.73438-1.5312-1.5938l0.67188-32.969c0.015625-0.85938 0.76562-1.5312 1.5938-1.5312 0.85938 0.015625 1.5469 0.73438 1.5312 1.5938l-0.67188 32.969c-0.015625 0.85938-0.71875 1.5312-1.5625 1.5312z"/>
 <path d="m87.047 93.75h-16.938c-0.51562 0-1.0156-0.10938-1.4844-0.3125-0.78125-0.35938-1.1406-1.2812-0.78125-2.0625s1.2812-1.1406 2.0625-0.78125c0.0625 0.03125 0.125 0.03125 0.1875 0.03125h16.938c0.23438 0 0.32812-0.14062 0.375-0.25 0.078125-0.23438-0.0625-0.34375-0.10938-0.39062l-6.3906-5.6094h-4.0625c-0.85938 0-1.5625-0.70312-1.5625-1.5625s0.70312-1.5625 1.5625-1.5625h4.6562c0.375 0 0.75 0.14062 1.0312 0.39062l6.8438 6c1.1094 0.96875 1.4844 2.4688 0.96875 3.8438s-1.8125 2.2812-3.2969 2.2812z"/>
<text x="0.0" y="117.5" font-size="5.0" font-weight="bold" font-family="Arbeit Regular, Helvetica, Arial-Unicode, Arial, Sans-serif" fill="#000000">Created by Icon From Us</text><text x="0.0" y="122.5" font-size="5.0" font-weight="bold" font-family="Arbeit Regular, Helvetica, Arial-Unicode, Arial, Sans-serif" fill="#000000">from Noun Project</text></svg>