<svg xmlns="http://www.w3.org/2000/svg" version="1.1" viewBox="-5.0 -10.0 110.0 135.0">
 <path d="m67.609 51.363c-0.33203-0.035156-0.63281-0.21875-0.82031-0.49609-0.039062-0.058594-1.1484-1.6016-3.3594-1.4961-1.9102 0.10938-3.5352 2.5156-4 3.4297-0.13672 0.26953-0.375 0.47656-0.66406 0.56641-0.28516 0.09375-0.60156 0.066406-0.86719-0.074219-1.0547-0.55469-1.9609-0.6875-2.6836-0.39844-1.1094 0.44531-1.6055 1.7969-1.6133 1.8086-0.10937 0.32812-0.36328 0.58594-0.6875 0.70312-0.32812 0.11719-0.6875 0.078125-0.97656-0.10156-0.015625-0.007813-1.9688-1.1719-3.2539-0.09375-0.9375 0.78516-0.79297 2.4297-0.625 3.3281h36.762c0.17578-1.5547-0.019531-2.7188-0.62891-3.3438-0.78125-0.80078-2.0781-0.62891-2.0938-0.62891-0.58203 0.082032-1.1367-0.29297-1.2656-0.86328-0.34766-1.5156-1.0352-3.4141-2.3398-3.875-1.1758-0.41016-2.6445 0.45312-3.1094 0.82422-0.45703 0.36328-1.1211 0.32031-1.5234-0.10547-0.61328-0.64453-1.2773-0.96875-2.0234-0.98438-1.7305-0.070312-3.2969 1.4766-3.3164 1.4922-0.24609 0.23047-0.57812 0.34375-0.91016 0.30859zm-10.895 5.3477c0 0.625-0.50781 1.1289-1.1289 1.1289-0.625 0-1.1289-0.50781-1.1289-1.1289v-0.42188c0-0.625 0.50781-1.1289 1.1289-1.1289 0.625 0 1.1289 0.50781 1.1289 1.1289zm4.0469-1.5781c0 0.625-0.50781 1.1289-1.1289 1.1289-0.625 0-1.1289-0.50781-1.1289-1.1289v-0.42187c0-0.625 0.50781-1.1289 1.1289-1.1289 0.625 0 1.1289 0.50781 1.1289 1.1289zm3.207 1.5234c0 0.625-0.50781 1.1289-1.1289 1.1289-0.625 0-1.1289-0.50781-1.1289-1.1289v-0.42188c0-0.625 0.50781-1.1289 1.1289-1.1289 0.625 0 1.1289 0.50781 1.1289 1.1289zm2.3164-3.0508c0 0.625-0.50781 1.1289-1.1289 1.1289-0.625 0-1.1289-0.50781-1.1289-1.1289v-0.42188c0-0.625 0.50781-1.1289 1.1289-1.1289 0.625 0 1.1289 0.50781 1.1289 1.1289zm7.5195 2.5781c0-0.625 0.50781-1.1289 1.1289-1.1289 0.625 0 1.1289 0.50781 1.1289 1.1289v0.21094c0 0.625-0.50781 1.1289-1.1289 1.1289-0.625 0-1.1289-0.50781-1.1289-1.1289zm-3.9961-2.5234c0-0.625 0.50781-1.1289 1.1289-1.1289 0.625 0 1.1289 0.50781 1.1289 1.1289v0.31641c0 0.625-0.50781 1.1289-1.1289 1.1289-0.625 0-1.1289-0.50781-1.1289-1.1289zm-0.52734 2.9961v0.42188c0 0.625-0.50781 1.1289-1.1289 1.1289-0.625 0-1.1289-0.50781-1.1289-1.1289v-0.42188c0-0.625 0.50781-1.1289 1.1289-1.1289s1.1289 0.50391 1.1289 1.1289z"/>
 <path d="m74.867 48.301 11.18-17.973c0.21875-0.35156 0.28516-0.76562 0.18359-1.168-0.10156-0.40234-0.35547-0.73828-0.71094-0.94141-0.35938-0.20703-0.77344-0.25781-1.1641-0.14844-0.39453 0.10938-0.72266 0.37109-0.92188 0.73047l-10.258 18.723c0.56641 0.17187 1.1055 0.4375 1.6094 0.82422 0.023438-0.019531 0.054688-0.035156 0.082032-0.046875z"/>
 <path d="m58.125 84.207-0.41797 2.0312h17.512l-0.41797-2.0312z"/>
 <path d="m46.91 60.797s-0.12109 0.11719-0.12109 0.12109c0.35156 3.625 2.1562 15.77 10.645 21.031h18.062c8.4883-5.2578 10.293-17.402 10.645-21.031l-0.12109-0.11719z"/>
 <path d="m15.496 65.719c2.418-0.96484 7.957-2.6211 12.465 0.22266 4.0625 2.5625 9.8945-0.32812 11.352-1.1289l1.6797-16.797-27.27 0.003906z"/>
 <path d="m26.754 67.855c-4.043-2.5469-9.4922-0.45703-11.023 0.21875l2.082 20.801c0.011719 0.125 0.11719 0.21875 0.23828 0.21875h18.609c0.125 0 0.22656-0.09375 0.23828-0.21875l2.1406-21.391c-1.6914 0.78125-4.3711 1.7617-7.1758 1.7617-1.7227-0.003906-3.4961-0.375-5.1094-1.3906z"/>
 <path d="m51.129 15.457c0.625 0 1.1289-0.50781 1.1289-1.1289v-2.2891c0-0.625-0.50781-1.1289-1.1289-1.1289-0.625 0-1.1289 0.50781-1.1289 1.1289v2.2891c0 0.62109 0.50781 1.1289 1.1289 1.1289z"/>
 <path d="m51.129 46.906c0.625 0 1.1289-0.50781 1.1289-1.1289v-2.2891c0-0.625-0.50781-1.1289-1.1289-1.1289-0.625 0-1.1289 0.50781-1.1289 1.1289v2.2891c0 0.62109 0.50781 1.1289 1.1289 1.1289z"/>
 <path d="m65.711 30.035h2.2891c0.625 0 1.1289-0.50781 1.1289-1.1289 0-0.625-0.50781-1.1289-1.1289-1.1289h-2.2891c-0.625 0-1.1289 0.50781-1.1289 1.1289-0.003906 0.625 0.50391 1.1289 1.1289 1.1289z"/>
 <path d="m34.262 30.035h2.2891c0.625 0 1.1289-0.50781 1.1289-1.1289 0-0.625-0.50781-1.1289-1.1289-1.1289h-2.2891c-0.625 0-1.1289 0.50781-1.1289 1.1289 0 0.625 0.50391 1.1289 1.1289 1.1289z"/>
 <path d="m61.441 19.727c0.28906 0 0.57812-0.10937 0.80078-0.33203l1.6172-1.6172c0.44141-0.44141 0.44141-1.1562 0-1.5977-0.44141-0.44141-1.1562-0.44141-1.5977 0l-1.6172 1.6172c-0.44141 0.44141-0.44141 1.1562 0 1.5977 0.21875 0.22266 0.50781 0.33203 0.79688 0.33203z"/>
 <path d="m40.023 38.418-1.6172 1.6172c-0.44141 0.44141-0.44141 1.1562 0 1.5977 0.21875 0.21875 0.50781 0.33203 0.80078 0.33203 0.28906 0 0.57812-0.10938 0.80078-0.33203l1.6172-1.6172c0.44141-0.44141 0.44141-1.1562 0-1.5977-0.44531-0.44141-1.1602-0.44141-1.6016 0z"/>
 <path d="m63.059 41.965c0.28906 0 0.57812-0.10938 0.80078-0.33203 0.44141-0.44141 0.44141-1.1562 0-1.5977l-1.6172-1.6172c-0.44141-0.44141-1.1562-0.44141-1.5977 0-0.44141 0.44141-0.44141 1.1562 0 1.5977l1.6172 1.6172c0.21875 0.22266 0.50781 0.33203 0.79688 0.33203z"/>
 <path d="m40.023 19.395c0.21875 0.21875 0.50781 0.33203 0.80078 0.33203 0.28906 0 0.57812-0.10937 0.80078-0.33203 0.44141-0.44141 0.44141-1.1562 0-1.5977l-1.6172-1.6172c-0.44141-0.44141-1.1562-0.44141-1.5977 0-0.44141 0.44141-0.44141 1.1562 0 1.5977z"/>
 <path d="m61.254 28.906c0-5.582-4.543-10.125-10.125-10.125-5.582 0-10.125 4.543-10.125 10.125s4.543 10.125 10.125 10.125c5.582 0 10.125-4.543 10.125-10.125z"/>
<text x="0.0" y="117.5" font-size="5.0" font-weight="bold" font-family="Arbeit Regular, Helvetica, Arial-Unicode, Arial, Sans-serif" fill="#000000">Created by Akhmad Sobahus Surur</text><text x="0.0" y="122.5" font-size="5.0" font-weight="bold" font-family="Arbeit Regular, Helvetica, Arial-Unicode, Arial, Sans-serif" fill="#000000">from Noun Project</text></svg>